<svg width="18" height="18" viewBox="0 0 18 18" fill="none" xmlns="http://www.w3.org/2000/svg">
<path d="M17.824 6.22822L11.7723 0.176C11.6877 0.0918692 11.5801 0.0346348 11.463 0.0114914C11.346 -0.011652 11.2247 0.000328567 11.1144 0.045927C11.0041 0.0915254 10.9098 0.168707 10.8433 0.267768C10.7768 0.366829 10.741 0.48335 10.7405 0.602681V2.36993L4.831 5.74707H1.96552C1.8462 5.74757 1.72969 5.78333 1.63063 5.84987C1.53158 5.91641 1.45441 6.01074 1.40881 6.12102C1.36322 6.2313 1.35124 6.35259 1.37438 6.46966C1.39752 6.58673 1.45475 6.69434 1.53887 6.77897L5.22436 10.4678L0.125799 17.0254C0.037537 17.1399 -0.00678994 17.2823 0.000844473 17.4267C0.00847889 17.5711 0.06757 17.7081 0.167418 17.8127C0.267265 17.9173 0.401269 17.9827 0.545163 17.997C0.689058 18.0114 0.83333 17.9737 0.951857 17.8908L7.82357 13.0672L11.2216 16.4625C11.3062 16.5466 11.4138 16.6039 11.5309 16.627C11.6479 16.6502 11.7692 16.6382 11.8795 16.5926C11.9898 16.547 12.0841 16.4698 12.1506 16.3708C12.2172 16.2717 12.2529 16.1552 12.2534 16.0358V12.8736L15.6212 7.26012H17.3974C17.5167 7.25962 17.6332 7.22385 17.7323 7.15732C17.8313 7.09078 17.9085 6.99644 17.9541 6.88617C17.9997 6.77589 18.0117 6.65459 17.9885 6.53753C17.9654 6.42046 17.9081 6.31285 17.824 6.22822ZM3.56014 14.5833L6.08976 11.3333L6.95515 12.1987L3.56014 14.5833ZM15.2793 6.04968C15.1742 6.05084 15.0712 6.07936 14.9805 6.13242C14.8897 6.18548 14.8144 6.26126 14.7619 6.35229L11.1308 12.4045C11.0754 12.4959 11.0451 12.6003 11.0431 12.7071V14.5742L3.427 6.95751H4.99137C5.09738 6.95824 5.20173 6.93111 5.29396 6.87883L11.6482 3.2475C11.7406 3.19418 11.8172 3.1174 11.8704 3.02493C11.9235 2.93247 11.9513 2.8276 11.9508 2.72096V2.06429L15.9359 6.04968H15.2793Z" fill="#46444F"/>
</svg>
